<svg xmlns="http://www.w3.org/2000/svg" version="1.1" xmlns:xlink="http://www.w3.org/1999/xlink" xmlns:svgjs="http://svgjs.dev/svgjs" viewBox="0 0 9.99473894412014 3.1861040757355643"><g transform="matrix(1,0,0,1,0.45478286297531056,0.507754963116362)"><g><path d=" M 0.10693359375 0.010986328125 L 0.303955078125 0.010986328125 Q 0.3486328125 0.010986328125 0.3966064453125 0.0135498046875 Q 0.444580078125 0.01611328125 0.4903564453125 0.029296875 Q 0.5361328125 0.04248046875 0.5767822265625 0.0699462890625 Q 0.617431640625 0.097412109375 0.648193359375 0.1468505859375 Q 0.678955078125 0.1962890625 0.6968994140625 0.2713623046875 Q 0.71484375 0.346435546875 0.71484375 0.454833984375 L 0.71484375 0.818115234375 Q 0.71484375 0.926513671875 0.6968994140625 1.001953125 Q 0.678955078125 1.077392578125 0.648193359375 1.12646484375 Q 0.617431640625 1.175537109375 0.5767822265625 1.2030029296875 Q 0.5361328125 1.23046875 0.4903564453125 1.24365234375 Q 0.444580078125 1.2568359375 0.3966064453125 1.2593994140625 Q 0.3486328125 1.261962890625 0.303955078125 1.261962890625 L 0.10693359375 1.261962890625 L 0.10693359375 0.010986328125 M 0.344970703125 1.12939453125 Q 0.396240234375 1.12939453125 0.4295654296875 1.1162109375 Q 0.462890625 1.10302734375 0.4822998046875 1.0697021484375 Q 0.501708984375 1.036376953125 0.509033203125 0.9788818359375 Q 0.516357421875 0.92138671875 0.516357421875 0.83349609375 L 0.516357421875 0.4453125 Q 0.516357421875 0.357421875 0.509033203125 0.2999267578125 Q 0.501708984375 0.242431640625 0.4822998046875 0.2091064453125 Q 0.462890625 0.17578125 0.4295654296875 0.16259765625 Q 0.396240234375 0.1494140625 0.344970703125 0.1494140625 L 0.296630859375 0.1494140625 L 0.296630859375 1.12939453125 L 0.344970703125 1.12939453125 M 0.884033203125 0.010986328125 L 1.07373046875 0.010986328125 L 1.07373046875 1.261962890625 L 0.884033203125 1.261962890625 L 0.884033203125 0.010986328125 M 1.194580078125 0.010986328125 L 1.388671875 0.010986328125 L 1.5263671875 1.001953125 L 1.534423828125 1.001953125 L 1.6728515625 0.010986328125 L 1.8662109375 0.010986328125 L 1.638427734375 1.261962890625 L 1.421630859375 1.261962890625 L 1.194580078125 0.010986328125 M 1.987060546875 0.010986328125 L 2.1767578125 0.010986328125 L 2.1767578125 1.261962890625 L 1.987060546875 1.261962890625 L 1.987060546875 0.010986328125 M 2.34228515625 1.008544921875 Q 2.34228515625 0.96826171875 2.3470458984375 0.9342041015625 Q 2.351806640625 0.900146484375 2.361328125 0.860595703125 L 2.508544921875 0.860595703125 L 2.508544921875 0.92138671875 Q 2.508544921875 0.971923828125 2.5147705078125 1.0107421875 Q 2.52099609375 1.049560546875 2.5352783203125 1.0762939453125 Q 2.549560546875 1.10302734375 2.5733642578125 1.1165771484375 Q 2.59716796875 1.130126953125 2.631591796875 1.130126953125 Q 2.685791015625 1.130126953125 2.71435546875 1.1004638671875 Q 2.742919921875 1.07080078125 2.742919921875 1.013671875 Q 2.742919921875 0.984375 2.7388916015625 0.9598388671875 Q 2.73486328125 0.935302734375 2.7249755859375 0.9111328125 Q 2.715087890625 0.886962890625 2.6982421875 0.8602294921875 Q 2.681396484375 0.83349609375 2.655029296875 0.800537109375 L 2.457275390625 0.5654296875 Q 2.404541015625 0.498046875 2.3759765625 0.4295654296875 Q 2.347412109375 0.361083984375 2.347412109375 0.283447265625 Q 2.347412109375 0.22119140625 2.3668212890625 0.169189453125 Q 2.38623046875 0.1171875 2.4228515625 0.0794677734375 Q 2.45947265625 0.041748046875 2.5133056640625 0.0208740234375 Q 2.567138671875 0 2.63525390625 0 Q 2.718017578125 0 2.7733154296875 0.0234375 Q 2.82861328125 0.046875 2.861572265625 0.0849609375 Q 2.89453125 0.123046875 2.9080810546875 0.1702880859375 Q 2.921630859375 0.217529296875 2.921630859375 0.26513671875 Q 2.921630859375 0.305419921875 2.9154052734375 0.3394775390625 Q 2.9091796875 0.37353515625 2.901123046875 0.41455078125 L 2.754638671875 0.41455078125 L 2.754638671875 0.355224609375 Q 2.754638671875 0.255615234375 2.72607421875 0.2025146484375 Q 2.697509765625 0.1494140625 2.633056640625 0.1494140625 Q 2.57958984375 0.1494140625 2.55322265625 0.1790771484375 Q 2.52685546875 0.208740234375 2.52685546875 0.258544921875 Q 2.52685546875 0.284912109375 2.5308837890625 0.30615234375 Q 2.534912109375 0.327392578125 2.5426025390625 0.3453369140625 Q 2.55029296875 0.36328125 2.561279296875 0.380126953125 Q 2.572265625 0.39697265625 2.586181640625 0.415283203125 L 2.806640625 0.681884765625 Q 2.86669921875 0.76025390625 2.89892578125 0.8323974609375 Q 2.93115234375 0.904541015625 2.93115234375 0.985107421875 Q 2.93115234375 1.0517578125 2.9102783203125 1.105224609375 Q 2.889404296875 1.15869140625 2.8505859375 1.196044921875 Q 2.811767578125 1.2333984375 2.7568359375 1.2535400390625 Q 2.701904296875 1.273681640625 2.633056640625 1.273681640625 Q 2.548095703125 1.273681640625 2.4920654296875 1.2509765625 Q 2.43603515625 1.228271484375 2.4027099609375 1.19091796875 Q 2.369384765625 1.153564453125 2.3558349609375 1.10595703125 Q 2.34228515625 1.058349609375 2.34228515625 1.008544921875 M 3.36767578125 1.27294921875 Q 3.337646484375 1.27294921875 3.302490234375 1.2681884765625 Q 3.267333984375 1.263427734375 3.23291015625 1.248046875 Q 3.198486328125 1.232666015625 3.1666259765625 1.2044677734375 Q 3.134765625 1.17626953125 3.1102294921875 1.130126953125 Q 3.085693359375 1.083984375 3.071044921875 1.0162353515625 Q 3.056396484375 0.948486328125 3.056396484375 0.854736328125 L 3.056396484375 0.41162109375 Q 3.056396484375 0.317138671875 3.0714111328125 0.2501220703125 Q 3.08642578125 0.18310546875 3.111328125 0.1373291015625 Q 3.13623046875 0.091552734375 3.1680908203125 0.064453125 Q 3.199951171875 0.037353515625 3.2347412109375 0.0230712890625 Q 3.26953125 0.0087890625 3.303955078125 0.00439453125 Q 3.33837890625 0 3.36767578125 0 Q 3.3955078125 0 3.4295654296875 0.0040283203125 Q 3.463623046875 0.008056640625 3.4976806640625 0.0216064453125 Q 3.53173828125 0.03515625 3.56396484375 0.0618896484375 Q 3.59619140625 0.088623046875 3.62109375 0.1343994140625 Q 3.64599609375 0.18017578125 3.6610107421875 0.2479248046875 Q 3.676025390625 0.315673828125 3.676025390625 0.41162109375 L 3.676025390625 0.854736328125 Q 3.676025390625 0.94775390625 3.66064453125 1.0147705078125 Q 3.645263671875 1.081787109375 3.620361328125 1.1282958984375 Q 3.595458984375 1.1748046875 3.5628662109375 1.2030029296875 Q 3.5302734375 1.231201171875 3.4962158203125 1.2469482421875 Q 3.462158203125 1.2626953125 3.428466796875 1.267822265625 Q 3.394775390625 1.27294921875 3.36767578125 1.27294921875 M 3.36767578125 1.130126953125 Q 3.3955078125 1.130126953125 3.4163818359375 1.12060546875 Q 3.437255859375 1.111083984375 3.4508056640625 1.087646484375 Q 3.46435546875 1.064208984375 3.4713134765625 1.0257568359375 Q 3.478271484375 0.9873046875 3.478271484375 0.9287109375 L 3.478271484375 0.359619140625 Q 3.478271484375 0.299560546875 3.4713134765625 0.25927734375 Q 3.46435546875 0.218994140625 3.4508056640625 0.1944580078125 Q 3.437255859375 0.169921875 3.4163818359375 0.15966796875 Q 3.3955078125 0.1494140625 3.36767578125 0.1494140625 Q 3.339111328125 0.1494140625 3.31787109375 0.15966796875 Q 3.296630859375 0.169921875 3.28271484375 0.1944580078125 Q 3.268798828125 0.218994140625 3.2618408203125 0.25927734375 Q 3.2548828125 0.299560546875 3.2548828125 0.359619140625 L 3.2548828125 0.9287109375 Q 3.2548828125 0.9873046875 3.2618408203125 1.0257568359375 Q 3.268798828125 1.064208984375 3.28271484375 1.087646484375 Q 3.296630859375 1.111083984375 3.31787109375 1.12060546875 Q 3.339111328125 1.130126953125 3.36767578125 1.130126953125 M 3.85546875 0.010986328125 L 4.00927734375 0.010986328125 L 4.3125 0.84814453125 L 4.31689453125 0.84814453125 Q 4.314697265625 0.81884765625 4.31103515625 0.782958984375 Q 4.307373046875 0.7470703125 4.304443359375 0.7012939453125 Q 4.301513671875 0.655517578125 4.29931640625 0.59765625 Q 4.297119140625 0.539794921875 4.297119140625 0.46728515625 L 4.297119140625 0.010986328125 L 4.467041015625 0.010986328125 L 4.467041015625 1.261962890625 L 4.311767578125 1.261962890625 L 4.010009765625 0.44677734375 L 4.004150390625 0.44677734375 Q 4.00634765625 0.479736328125 4.010009765625 0.5181884765625 Q 4.013671875 0.556640625 4.0166015625 0.608642578125 Q 4.01953125 0.66064453125 4.021728515625 0.7298583984375 Q 4.02392578125 0.799072265625 4.02392578125 0.894287109375 L 4.02392578125 1.261962890625 L 3.85546875 1.261962890625 L 3.85546875 0.010986328125 M 5.278564453125 1.27294921875 Q 5.24853515625 1.27294921875 5.21337890625 1.2681884765625 Q 5.17822265625 1.263427734375 5.143798828125 1.248046875 Q 5.109375 1.232666015625 5.0775146484375 1.2044677734375 Q 5.045654296875 1.17626953125 5.0211181640625 1.130126953125 Q 4.99658203125 1.083984375 4.98193359375 1.0162353515625 Q 4.96728515625 0.948486328125 4.96728515625 0.854736328125 L 4.96728515625 0.41162109375 Q 4.96728515625 0.317138671875 4.9822998046875 0.2501220703125 Q 4.997314453125 0.18310546875 5.022216796875 0.1373291015625 Q 5.047119140625 0.091552734375 5.0789794921875 0.064453125 Q 5.11083984375 0.037353515625 5.1456298828125 0.0230712890625 Q 5.180419921875 0.0087890625 5.21484375 0.00439453125 Q 5.249267578125 0 5.278564453125 0 Q 5.306396484375 0 5.3404541015625 0.0040283203125 Q 5.37451171875 0.008056640625 5.4085693359375 0.0216064453125 Q 5.442626953125 0.03515625 5.474853515625 0.0618896484375 Q 5.507080078125 0.088623046875 5.531982421875 0.1343994140625 Q 5.556884765625 0.18017578125 5.5718994140625 0.2479248046875 Q 5.5869140625 0.315673828125 5.5869140625 0.41162109375 L 5.5869140625 0.854736328125 Q 5.5869140625 0.94775390625 5.571533203125 1.0147705078125 Q 5.55615234375 1.081787109375 5.53125 1.1282958984375 Q 5.50634765625 1.1748046875 5.4737548828125 1.2030029296875 Q 5.441162109375 1.231201171875 5.4071044921875 1.2469482421875 Q 5.373046875 1.2626953125 5.33935546875 1.267822265625 Q 5.3056640625 1.27294921875 5.278564453125 1.27294921875 M 5.278564453125 1.130126953125 Q 5.306396484375 1.130126953125 5.3272705078125 1.12060546875 Q 5.34814453125 1.111083984375 5.3616943359375 1.087646484375 Q 5.375244140625 1.064208984375 5.3822021484375 1.0257568359375 Q 5.38916015625 0.9873046875 5.38916015625 0.9287109375 L 5.38916015625 0.359619140625 Q 5.38916015625 0.299560546875 5.3822021484375 0.25927734375 Q 5.375244140625 0.218994140625 5.3616943359375 0.1944580078125 Q 5.34814453125 0.169921875 5.3272705078125 0.15966796875 Q 5.306396484375 0.1494140625 5.278564453125 0.1494140625 Q 5.25 0.1494140625 5.228759765625 0.15966796875 Q 5.20751953125 0.169921875 5.193603515625 0.1944580078125 Q 5.1796875 0.218994140625 5.1727294921875 0.25927734375 Q 5.165771484375 0.299560546875 5.165771484375 0.359619140625 L 5.165771484375 0.9287109375 Q 5.165771484375 0.9873046875 5.1727294921875 1.0257568359375 Q 5.1796875 1.064208984375 5.193603515625 1.087646484375 Q 5.20751953125 1.111083984375 5.228759765625 1.12060546875 Q 5.25 1.130126953125 5.278564453125 1.130126953125 M 5.766357421875 0.010986328125 L 6.24462890625 0.010986328125 L 6.24462890625 0.160400390625 L 5.9560546875 0.160400390625 L 5.9560546875 0.53466796875 L 6.182373046875 0.53466796875 L 6.182373046875 0.68408203125 L 5.9560546875 0.68408203125 L 5.9560546875 1.261962890625 L 5.766357421875 1.261962890625 L 5.766357421875 0.010986328125" fill="#102036" fill-rule="nonzero"></path></g><g><path d=" M 1.8998357599431817 2.0217793412642044 L 1.8995028409090908 1.862311123934659 Q 1.8995028409090908 1.7504503284801134 1.891512784090909 1.649908780184659 Q 1.8905140269886362 1.634927423650568 1.9011674360795454 1.630599476207386 Q 1.9071599786931817 1.627936123934659 1.9151500355113635 1.6292678000710226 Q 1.9291326349431817 1.631598233309659 1.9491077769886362 1.631598233309659 Q 1.9690829190340908 1.631598233309659 1.9782381924715908 1.6314317737926136 Q 1.9873934659090908 1.631265314275568 1.9967151988636362 1.630932395241477 Q 2.02001953125 1.6299336381392044 2.028508966619318 1.6289348810369315 Q 2.0369984019886362 1.627936123934659 2.0414928089488633 1.6292678000710226 Q 2.045987215909091 1.630599476207386 2.04931640625 1.6332628284801136 Q 2.055974786931818 1.6392553710937499 2.055974786931818 1.6467460493607953 Q 2.055974786931818 1.6542367276278407 2.0499822443181817 1.6592305131392044 Q 2.0439897017045454 1.664224298650568 2.0335027521306817 1.6637249200994315 Q 2.023015802556818 1.6632255415482953 2.0103648792613633 1.662393243963068 Q 1.997713955965909 1.6615609463778407 1.983065518465909 1.6612280273437499 Q 1.9524369673295454 1.660229270241477 1.931130149147727 1.6615609463778407 L 1.931130149147727 1.719155939275568 Q 1.931130149147727 1.7531136807528407 1.9307972301136362 1.7884030983664772 Q 1.9304643110795454 1.8826191850142044 1.9304643110795454 1.9268974165482953 Q 1.97607421875 1.9268974165482953 2.002041903409091 1.924234064275568 Q 2.0296741832386362 1.9212377929687499 2.0296741832386362 1.9385495827414772 Q 2.0296741832386362 1.9551955344460226 1.9913884943181817 1.9555284534801134 Q 1.9817338423295454 1.9558613725142044 1.97607421875 1.9558613725142044 L 1.949440696022727 1.9555284534801134 L 1.9304643110795454 1.9555284534801134 L 1.9334605823863635 2.1502860884232953 Q 1.9334605823863635 2.158941983309659 1.9289661754261362 2.16476806640625 Q 1.924471768465909 2.1705941495028407 1.9191450639204544 2.1705941495028407 Q 1.913818359375 2.1705941495028407 1.9104891690340908 2.1697618519176136 Q 1.9071599786931817 2.168929554332386 1.9041637073863635 2.16659912109375 Q 1.8971724076704544 2.1606065784801136 1.8978382457386362 2.1502860884232953 Q 1.8998357599431817 2.1120003995028407 1.8998357599431817 2.0217793412642044 M 2.1157337535511362 1.6296007191051136 Q 2.1360418146306817 1.6296007191051136 2.1360418146306817 1.6585646750710226 Q 2.1360418146306817 1.6978491210937499 2.1355424360795454 1.7412950550426134 Q 2.1350430575284087 1.7847409889914772 2.134710138494318 1.8200304066051134 Q 2.134377219460227 1.8553198242187499 2.1340443004261362 1.902261408025568 Q 2.133378462357954 1.9998066850142044 2.1327126242897725 2.1416301935369315 Q 2.1989635120738633 2.1429618696732953 2.2598876953125 2.136969327059659 Q 2.2718727805397725 2.1356376509232953 2.278531161221591 2.1419631125710223 Q 2.2851895419034087 2.14828857421875 2.2851895419034087 2.155279873934659 Q 2.2851895419034087 2.1622711736505678 2.2791969992897725 2.167431418678977 Q 2.2732044566761362 2.172591663707386 2.261552290482954 2.1719258256392044 Q 2.223599520596591 2.168929554332386 2.1798206676136362 2.1705941495028407 Q 2.1360418146306817 2.1722587446732953 2.127053000710227 2.173590420809659 Q 2.1180641867897725 2.1749220969460223 2.1139026988636362 2.1740897993607953 Q 2.1097412109375 2.1732575017755678 2.106412020596591 2.1705941495028407 Q 2.099087801846591 2.1649345259232953 2.0997536399147725 2.1539481977982953 Q 2.1037486683238633 2.0760451438210223 2.1037486683238633 1.9503682084517044 Q 2.1037486683238633 1.824691273082386 2.103582208806818 1.7948950195312499 Q 2.1034157492897725 1.7650987659801134 2.102749911221591 1.7401298384232953 Q 2.101418235085227 1.6905249023437499 2.0970902876420454 1.6509075372869315 Q 2.0960915305397725 1.6402541281960226 2.1020840731534087 1.634927423650568 Q 2.1080766157670454 1.6296007191051136 2.1157337535511362 1.6296007191051136 M 2.3872292258522725 1.9878215997869315 L 2.387895063920454 2.1060078568892044 Q 2.387895063920454 2.1219879705255678 2.387895063920454 2.133307217684659 Q 2.388227982954545 2.1383010031960223 2.388227982954545 2.1419631125710223 Q 2.472123579545454 2.1419631125710223 2.4997558593749996 2.1392997602982953 Q 2.528386896306818 2.136303488991477 2.533047762784091 2.1376351651278407 Q 2.5377086292613633 2.1389668412642044 2.5410378196022725 2.1419631125710223 Q 2.547696200284091 2.147955655184659 2.547696200284091 2.1551134144176136 Q 2.547696200284091 2.1622711736505678 2.5413707386363633 2.167431418678977 Q 2.5350452769886362 2.172591663707386 2.523726029829545 2.1719258256392044 Q 2.4691273082386362 2.1675978781960223 2.4251819957386362 2.1704276899857953 Q 2.3812366832386362 2.1732575017755678 2.3759099786931817 2.1740897993607953 Q 2.370583274147727 2.1749220969460223 2.366421786221591 2.1740897993607953 Q 2.362260298295454 2.1732575017755678 2.358931107954545 2.1705941495028407 Q 2.351273970170454 2.1649345259232953 2.3519398082386362 2.1539481977982953 Q 2.3569335937499996 2.0577345969460223 2.3569335937499996 1.9410464754971588 Q 2.3569335937499996 1.8243583540482953 2.357100053267045 1.794229181463068 Q 2.357266512784091 1.7641000088778407 2.357266512784091 1.7391310813210226 Q 2.3566006747159087 1.685531116832386 2.354936079545454 1.6633920010653407 Q 2.3532714843749996 1.6412528852982953 2.3557683771306817 1.6369249378551136 Q 2.3582652698863633 1.6325969904119315 2.3619273792613633 1.630599476207386 Q 2.366921164772727 1.6282690429687499 2.374578302556818 1.6296007191051136 Q 2.3885609019886362 1.6319311523437499 2.4115323153409087 1.6319311523437499 Q 2.4558105468749996 1.6319311523437499 2.4719571200284087 1.6301000976562499 Q 2.488103693181818 1.6282690429687499 2.492764559659091 1.629767178622159 Q 2.4974254261363633 1.631265314275568 2.5004216974431817 1.6339286665482953 Q 2.5070800781249996 1.6392553710937499 2.5070800781249996 1.6469125088778407 Q 2.5070800781249996 1.6545696466619315 2.5010875355113633 1.6595634321732953 Q 2.495094992897727 1.664557217684659 2.4847745028409087 1.6640578391335226 Q 2.474454012784091 1.663558460582386 2.4628018465909087 1.662726162997159 Q 2.451149680397727 1.6618938654119315 2.437832919034091 1.6612280273437499 Q 2.409867720170454 1.660229270241477 2.389226740056818 1.6618938654119315 Q 2.389226740056818 1.6908578213778407 2.388893821022727 1.719488858309659 Q 2.3885609019886362 1.7534465997869315 2.388227982954545 1.7884030983664772 Q 2.3872292258522725 1.8822862659801134 2.3872292258522725 1.9268974165482953 Q 2.4288441051136362 1.9268974165482953 2.4484863281249996 1.9248999023437499 Q 2.469793146306818 1.9225694691051134 2.475286310369318 1.9268974165482953 Q 2.480779474431818 1.9312253639914772 2.480779474431818 1.9385495827414772 Q 2.480779474431818 1.9568601296164772 2.446488813920454 1.9561942915482953 Q 2.439497514204545 1.9558613725142044 2.4338378906249996 1.9558613725142044 L 2.4068714488636362 1.9555284534801134 L 2.3872292258522725 1.9555284534801134 L 2.3872292258522725 1.9878215997869315 M 2.597800514914772 1.638589533025568 Q 2.597800514914772 1.616949795809659 2.614446466619318 1.616949795809659 Q 2.630759499289772 1.616949795809659 2.637251420454545 1.638922452059659 Q 2.643743341619318 1.660895108309659 2.652732155539772 1.6866963334517044 Q 2.6617209694602266 1.7124975585937499 2.672041459517045 1.740462757457386 Q 2.6953457919034087 1.803717373934659 2.7103271484374996 1.8486614435369315 Q 2.722312233664772 1.8130391068892044 2.740622780539772 1.7647658469460226 Q 2.778575550426136 1.6628926225142044 2.7829034978693175 1.645580832741477 Q 2.789561878551136 1.6186143909801136 2.8055419921874996 1.6186143909801136 Q 2.8118674538352266 1.6186143909801136 2.816694779829545 1.6234417169744315 Q 2.8215221058238633 1.6282690429687499 2.8215221058238633 1.636092640269886 Q 2.8215221058238633 1.6439162375710226 2.815363103693181 1.6582317560369315 Q 2.8092041015624996 1.6725472745028407 2.798717151988636 1.696517444957386 Q 2.788230202414772 1.7204876154119315 2.7765780362215904 1.7491186523437499 Q 2.7499445134943175 1.8140378639914772 2.7243097478693175 1.890609241832386 Q 2.7865656072443175 2.077709738991477 2.8131991299715904 2.1392997602982953 Q 2.818192915482954 2.1512848455255678 2.813864968039772 2.1586090642755678 Q 2.802878639914772 2.17758544921875 2.788230202414772 2.1672649591619315 Q 2.7839022549715904 2.1642686878551136 2.780905983664772 2.1551134144176136 Q 2.777909712357954 2.1459581409801136 2.7722500887784087 2.1284798916903407 Q 2.7665904651988633 2.1110016424005678 2.7600985440340904 2.0903606622869315 Q 2.7536066228693175 2.0697196821732953 2.7462824041193175 2.0469147283380678 Q 2.7389581853693175 2.0241097745028407 2.7316339666193175 2.001138361150568 Q 2.7166526100852266 1.9545296963778407 2.7079967151988633 1.9265644975142044 Q 2.6990079012784087 1.9545296963778407 2.690684925426136 1.9814961381392044 Q 2.6803644353693175 2.0144551225142044 2.670709783380681 2.044750754616477 Q 2.6447420987215904 2.1239854847301136 2.637251420454545 2.1434612482244315 Q 2.6297607421874996 2.16293701171875 2.6242675781249996 2.1679307972301136 Q 2.6187744140624996 2.172924582741477 2.6132812499999996 2.172924582741477 Q 2.6077880859374996 2.172924582741477 2.603460138494318 2.167431418678977 Q 2.599132191051136 2.161938254616477 2.599132191051136 2.15561279296875 Q 2.599132191051136 2.1492873313210223 2.601462624289772 2.1429618696732953 Q 2.6334228515624996 2.067389248934659 2.6933482776988633 1.8842837801846588 Q 2.659723455255681 1.7827434747869315 2.601462624289772 1.653570889559659 Q 2.597800514914772 1.645580832741477 2.597800514914772 1.638589533025568 M 2.949363014914772 1.7336379172585226 Q 2.9491965553977266 1.7517820046164772 2.9491965553977266 1.879622913707386 Q 2.9491965553977266 2.0074638227982953 2.9531915838068175 2.1486214932528407 Q 2.9535245028409083 2.15927490234375 2.947032581676136 2.1649345259232953 Q 2.940540660511363 2.1705941495028407 2.9333829012784083 2.1705941495028407 Q 2.9262251420454537 2.1705941495028407 2.9207319779829537 2.165600363991477 Q 2.9152388139204537 2.1606065784801136 2.915904651988636 2.143294788707386 Q 2.9165704900568175 2.125982998934659 2.917236328124999 2.0953544477982953 Q 2.917902166193181 2.0647258966619315 2.918568004261363 2.030102317116477 Q 2.9198996803977266 1.9615209960937499 2.9198996803977266 1.9020949485085226 Q 2.9198996803977266 1.8426689009232953 2.919733220880681 1.8095434570312499 Q 2.919566761363636 1.7764180131392044 2.9189009232954537 1.748452814275568 Q 2.917902166193181 1.686529873934659 2.9152388139204537 1.649575861150568 Q 2.914240056818181 1.638922452059659 2.919067382812499 1.6337622070312499 Q 2.9238947088068175 1.6286019620028407 2.9315518465909083 1.6286019620028407 Q 2.939208984374999 1.6286019620028407 2.9458673650568175 1.6337622070312499 Q 2.952525745738636 1.638922452059659 2.952026367187499 1.6512404563210226 Q 2.951526988636363 1.663558460582386 2.9510276100852266 1.675543545809659 Q 2.9505282315340904 1.6875286310369315 2.9500288529829537 1.7015112304687499 Q 2.9495294744318175 1.715493829900568 2.949363014914772 1.7336379172585226 M 3.169089577414772 1.8886117276278407 L 3.1824063387784083 1.8859483753551134 Q 3.232677112926136 1.8866142134232953 3.260975230823863 1.9104179243607953 Q 3.2892733487215904 1.9342216352982953 3.2892733487215904 1.9781669477982953 Q 3.2892733487215904 2.0317669122869315 3.257313121448863 2.077376819957386 Q 3.214366566051136 2.1389668412642044 3.136463512073863 2.1632699307528407 Q 3.088523171164772 2.1779183682528407 3.075206409801136 2.168929554332386 Q 3.067216352982954 2.1636028497869315 3.067216352982954 2.1499531693892044 L 3.070545543323863 1.8829521040482953 L 3.070545543323863 1.846663929332386 Q 3.070545543323863 1.799056507457386 3.069047407670454 1.7687608753551134 Q 3.067549272017045 1.7384652432528407 3.066550514914772 1.7181571821732953 Q 3.0655517578124996 1.6978491210937499 3.064719460227272 1.681036709872159 Q 3.063887162642045 1.664224298650568 3.066051136363636 1.6597298916903407 Q 3.0682151100852266 1.6552354847301136 3.0718772194602266 1.652905051491477 Q 3.0802001953124996 1.6472454279119315 3.1186523437499996 1.6399212091619315 Q 3.1571044921874996 1.6325969904119315 3.1780783913352266 1.6325969904119315 Q 3.286942915482954 1.6325969904119315 3.286942915482954 1.7244826438210226 Q 3.286942915482954 1.799056507457386 3.2083740234374996 1.8603136097301134 Q 3.1900634765624996 1.8746291281960226 3.169089577414772 1.8886117276278407 M 3.100508256392045 2.1376351651278407 Q 3.1281405362215904 2.1366364080255678 3.1531094637784083 2.125317160866477 Q 3.181407581676136 2.1120003995028407 3.198719371448863 2.09885009765625 Q 3.2160311612215904 2.085699795809659 3.2296808416193175 2.0683880060369315 Q 3.2596435546874996 2.030435236150568 3.2596435546874996 1.9818290571732953 Q 3.2596435546874996 1.9475383966619315 3.232677112926136 1.9292278497869315 Q 3.2083740234374996 1.9129148171164772 3.1714200106534083 1.9129148171164772 Q 3.139459783380681 1.9129148171164772 3.118152965198863 1.9202390358664772 Q 3.1055020419034087 1.9245669833096588 3.0981778231534087 1.927896173650568 Q 3.0981778231534087 1.9355533114346588 3.0985107421874996 1.9442092063210226 Q 3.0985107421874996 1.9678464577414772 3.098677201704545 1.9958116566051134 Q 3.0988436612215904 2.02377685546875 3.099176580255681 2.051742054332386 Q 3.099842418323863 2.1120003995028407 3.100508256392045 2.1376351651278407 M 3.0981778231534087 1.8969347034801134 Q 3.143787730823863 1.887612970525568 3.195057262073863 1.8423359818892044 Q 3.231678355823863 1.810042835582386 3.2476584694602266 1.770425470525568 Q 3.2556485262784083 1.7497844904119315 3.2556485262784083 1.7291435102982953 Q 3.2556485262784083 1.708502530184659 3.249156605113636 1.695352228338068 Q 3.242664683948863 1.6822019264914772 3.231678355823863 1.6738789506392044 Q 3.210704456676136 1.6588975941051136 3.174083362926136 1.6588975941051136 Q 3.132468483664772 1.6588975941051136 3.099842418323863 1.6738789506392044 Q 3.099842418323863 1.678206898082386 3.099509499289772 1.6851981977982953 Q 3.099176580255681 1.697183283025568 3.0988436612215904 1.7214863725142044 Q 3.0981778231534087 1.7700925514914772 3.0981778231534087 1.829019220525568 L 3.0981778231534087 1.8969347034801134 M 3.387983842329545 1.6296007191051136 Q 3.4082919034090904 1.6296007191051136 3.4082919034090904 1.6585646750710226 Q 3.4082919034090904 1.6978491210937499 3.407792524857954 1.7412950550426134 Q 3.4072931463068175 1.7847409889914772 3.4069602272727266 1.8200304066051134 Q 3.406627308238636 1.8553198242187499 3.406294389204545 1.902261408025568 Q 3.405628551136363 1.9998066850142044 3.404962713068181 2.1416301935369315 Q 3.471213600852272 2.1429618696732953 3.5321377840909083 2.136969327059659 Q 3.544122869318181 2.1356376509232953 3.5507812499999996 2.1419631125710223 Q 3.5574396306818175 2.14828857421875 3.5574396306818175 2.155279873934659 Q 3.5574396306818175 2.1622711736505678 3.551447088068181 2.167431418678977 Q 3.545454545454545 2.172591663707386 3.533802379261363 2.1719258256392044 Q 3.4958496093749996 2.168929554332386 3.452070756392045 2.1705941495028407 Q 3.4082919034090904 2.1722587446732953 3.399303089488636 2.173590420809659 Q 3.390314275568181 2.1749220969460223 3.386152787642045 2.1740897993607953 Q 3.3819912997159087 2.1732575017755678 3.3786621093749996 2.1705941495028407 Q 3.3713378906249996 2.1649345259232953 3.372003728693181 2.1539481977982953 Q 3.375998757102272 2.0760451438210223 3.375998757102272 1.9503682084517044 Q 3.375998757102272 1.824691273082386 3.3758322975852266 1.7948950195312499 Q 3.375665838068181 1.7650987659801134 3.3749999999999996 1.7401298384232953 Q 3.373668323863636 1.6905249023437499 3.369340376420454 1.6509075372869315 Q 3.368341619318181 1.6402541281960226 3.3743341619318175 1.634927423650568 Q 3.380326704545454 1.6296007191051136 3.387983842329545 1.6296007191051136 M 3.659479314630681 1.9878215997869315 L 3.660145152698863 2.1060078568892044 Q 3.660145152698863 2.1219879705255678 3.660145152698863 2.133307217684659 Q 3.6604780717329537 2.1383010031960223 3.6604780717329537 2.1419631125710223 Q 3.744373668323863 2.1419631125710223 3.7720059481534083 2.1392997602982953 Q 3.8006369850852266 2.136303488991477 3.805297851562499 2.1376351651278407 Q 3.809958718039772 2.1389668412642044 3.813287908380681 2.1419631125710223 Q 3.819946289062499 2.147955655184659 3.819946289062499 2.1551134144176136 Q 3.819946289062499 2.1622711736505678 3.813620827414772 2.167431418678977 Q 3.807295365767045 2.172591663707386 3.7959761186079537 2.1719258256392044 Q 3.741377397017045 2.1675978781960223 3.697432084517045 2.1704276899857953 Q 3.653486772017045 2.1732575017755678 3.6481600674715904 2.1740897993607953 Q 3.642833362926136 2.1749220969460223 3.6386718749999996 2.1740897993607953 Q 3.634510387073863 2.1732575017755678 3.6311811967329537 2.1705941495028407 Q 3.623524058948863 2.1649345259232953 3.624189897017045 2.1539481977982953 Q 3.6291836825284083 2.0577345969460223 3.6291836825284083 1.9410464754971588 Q 3.6291836825284083 1.8243583540482953 3.6293501420454537 1.794229181463068 Q 3.6295166015624996 1.7641000088778407 3.6295166015624996 1.7391310813210226 Q 3.6288507634943175 1.685531116832386 3.627186168323863 1.6633920010653407 Q 3.6255215731534083 1.6412528852982953 3.6280184659090904 1.6369249378551136 Q 3.630515358664772 1.6325969904119315 3.634177468039772 1.630599476207386 Q 3.639171253551136 1.6282690429687499 3.6468283913352266 1.6296007191051136 Q 3.660810990767045 1.6319311523437499 3.6837824041193175 1.6319311523437499 Q 3.7280606356534083 1.6319311523437499 3.7442072088068175 1.6301000976562499 Q 3.7603537819602266 1.6282690429687499 3.765014648437499 1.629767178622159 Q 3.769675514914772 1.631265314275568 3.7726717862215904 1.6339286665482953 Q 3.7793301669034083 1.6392553710937499 3.7793301669034083 1.6469125088778407 Q 3.7793301669034083 1.6545696466619315 3.773337624289772 1.6595634321732953 Q 3.767345081676136 1.664557217684659 3.7570245916193175 1.6640578391335226 Q 3.746704101562499 1.663558460582386 3.7350519353693175 1.662726162997159 Q 3.723399769176136 1.6618938654119315 3.710083007812499 1.6612280273437499 Q 3.682117808948863 1.660229270241477 3.6614768288352266 1.6618938654119315 Q 3.6614768288352266 1.6908578213778407 3.661143909801136 1.719488858309659 Q 3.660810990767045 1.7534465997869315 3.6604780717329537 1.7884030983664772 Q 3.659479314630681 1.8822862659801134 3.659479314630681 1.9268974165482953 Q 3.701094193892045 1.9268974165482953 3.7207364169034083 1.9248999023437499 Q 3.7420432350852266 1.9225694691051134 3.7475363991477266 1.9268974165482953 Q 3.7530295632102266 1.9312253639914772 3.7530295632102266 1.9385495827414772 Q 3.7530295632102266 1.9568601296164772 3.718738902698863 1.9561942915482953 Q 3.7117476029829537 1.9558613725142044 3.7060879794034083 1.9558613725142044 L 3.679121537642045 1.9555284534801134 L 3.659479314630681 1.9555284534801134 L 3.659479314630681 1.9878215997869315 M 4.01803311434659 1.6296007191051136 Q 4.038341175426136 1.6296007191051136 4.038341175426136 1.6585646750710226 Q 4.038341175426136 1.6978491210937499 4.037841796874999 1.7412950550426134 Q 4.037342418323863 1.7847409889914772 4.0370094992897725 1.8200304066051134 Q 4.036676580255682 1.8553198242187499 4.03634366122159 1.902261408025568 Q 4.035677823153408 1.9998066850142044 4.035011985085227 2.1416301935369315 Q 4.1012628728693175 2.1429618696732953 4.162187056107954 2.136969327059659 Q 4.174172141335227 2.1356376509232953 4.180830522017045 2.1419631125710223 Q 4.187488902698863 2.14828857421875 4.187488902698863 2.155279873934659 Q 4.187488902698863 2.1622711736505678 4.181496360085227 2.167431418678977 Q 4.17550381747159 2.172591663707386 4.163851651278408 2.1719258256392044 Q 4.125898881392045 2.168929554332386 4.08212002840909 2.1705941495028407 Q 4.038341175426136 2.1722587446732953 4.029352361505682 2.173590420809659 Q 4.020363547585227 2.1749220969460223 4.01620205965909 2.1740897993607953 Q 4.012040571732954 2.1732575017755678 4.008711381392045 2.1705941495028407 Q 4.001387162642045 2.1649345259232953 4.002053000710227 2.1539481977982953 Q 4.0060480291193175 2.0760451438210223 4.0060480291193175 1.9503682084517044 Q 4.0060480291193175 1.824691273082386 4.0058815696022725 1.7948950195312499 Q 4.005715110085227 1.7650987659801134 4.005049272017045 1.7401298384232953 Q 4.003717595880681 1.6905249023437499 3.9993896484374996 1.6509075372869315 Q 3.9983908913352266 1.6402541281960226 4.004383433948863 1.634927423650568 Q 4.010375976562499 1.6296007191051136 4.01803311434659 1.6296007191051136 M 4.289528586647727 1.9878215997869315 L 4.290194424715909 2.1060078568892044 Q 4.290194424715909 2.1219879705255678 4.290194424715909 2.133307217684659 Q 4.29052734375 2.1383010031960223 4.29052734375 2.1419631125710223 Q 4.374422940340909 2.1419631125710223 4.402055220170454 2.1392997602982953 Q 4.4306862571022725 2.136303488991477 4.435347123579545 2.1376351651278407 Q 4.440007990056818 2.1389668412642044 4.443337180397727 2.1419631125710223 Q 4.449995561079545 2.147955655184659 4.449995561079545 2.1551134144176136 Q 4.449995561079545 2.1622711736505678 4.443670099431818 2.167431418678977 Q 4.437344637784091 2.172591663707386 4.426025390625 2.1719258256392044 Q 4.371426669034091 2.1675978781960223 4.327481356534091 2.1704276899857953 Q 4.283536044034091 2.1732575017755678 4.278209339488636 2.1740897993607953 Q 4.272882634943182 2.1749220969460223 4.268721147017045 2.1740897993607953 Q 4.264559659090909 2.1732575017755678 4.26123046875 2.1705941495028407 Q 4.253573330965909 2.1649345259232953 4.254239169034091 2.1539481977982953 Q 4.259232954545454 2.0577345969460223 4.259232954545454 1.9410464754971588 Q 4.259232954545454 1.8243583540482953 4.2593994140625 1.794229181463068 Q 4.259565873579545 1.7641000088778407 4.259565873579545 1.7391310813210226 Q 4.258900035511363 1.685531116832386 4.257235440340909 1.6633920010653407 Q 4.255570845170454 1.6412528852982953 4.258067737926136 1.6369249378551136 Q 4.260564630681818 1.6325969904119315 4.264226740056818 1.630599476207386 Q 4.269220525568182 1.6282690429687499 4.2768776633522725 1.6296007191051136 Q 4.290860262784091 1.6319311523437499 4.313831676136363 1.6319311523437499 Q 4.358109907670454 1.6319311523437499 4.374256480823863 1.6301000976562499 Q 4.3904030539772725 1.6282690429687499 4.395063920454545 1.629767178622159 Q 4.399724786931818 1.631265314275568 4.402721058238636 1.6339286665482953 Q 4.409379438920454 1.6392553710937499 4.409379438920454 1.6469125088778407 Q 4.409379438920454 1.6545696466619315 4.403386896306818 1.6595634321732953 Q 4.397394353693182 1.664557217684659 4.387073863636363 1.6640578391335226 Q 4.376753373579545 1.663558460582386 4.365101207386363 1.662726162997159 Q 4.353449041193182 1.6618938654119315 4.340132279829545 1.6612280273437499 Q 4.312167080965909 1.660229270241477 4.2915261008522725 1.6618938654119315 Q 4.2915261008522725 1.6908578213778407 4.291193181818182 1.719488858309659 Q 4.290860262784091 1.7534465997869315 4.29052734375 1.7884030983664772 Q 4.289528586647727 1.8822862659801134 4.289528586647727 1.9268974165482953 Q 4.331143465909091 1.9268974165482953 4.350785688920454 1.9248999023437499 Q 4.3720925071022725 1.9225694691051134 4.3775856711647725 1.9268974165482953 Q 4.3830788352272725 1.9312253639914772 4.3830788352272725 1.9385495827414772 Q 4.3830788352272725 1.9568601296164772 4.348788174715909 1.9561942915482953 Q 4.341796875 1.9558613725142044 4.336137251420454 1.9558613725142044 L 4.309170809659091 1.9555284534801134 L 4.289528586647727 1.9555284534801134 L 4.289528586647727 1.9878215997869315 M 4.610296075994318 1.630932395241477 Q 4.6182861328125 1.630932395241477 4.624944513494318 1.6375907759232953 Q 4.631602894176137 1.6442491566051136 4.635431463068182 1.665389515269886 Q 4.6392600319602275 1.686529873934659 4.647083629261363 1.725814319957386 Q 4.6549072265625 1.7650987659801134 4.664561878551137 1.8097099165482953 Q 4.6742165305397725 1.8543210671164772 4.684869939630682 1.9017620294744315 Q 4.695523348721591 1.949202991832386 4.7061767578125 1.993814142400568 Q 4.7318115234375 2.0983507191051136 4.746127041903409 2.1466239790482953 Q 4.749456232244318 2.158941983309659 4.744295987215909 2.166266202059659 Q 4.7391357421875 2.173590420809659 4.7328102805397725 2.173590420809659 Q 4.726484818892045 2.173590420809659 4.721324573863637 2.169928311434659 Q 4.7161643288352275 2.166266202059659 4.712169300426137 2.14828857421875 Q 4.708174272017045 2.1303109463778407 4.699185458096591 2.0900277432528407 Q 4.690196644176137 2.0497445401278407 4.679876154119318 2.0034687943892044 Q 4.6795432350852275 2.001471280184659 4.679210316051137 1.9998066850142044 Q 4.656571821732954 1.9988079279119315 4.615289861505682 1.9988079279119315 Q 4.566683682528409 1.9988079279119315 4.541048916903409 2.0001396040482953 Q 4.540715997869318 2.0021371182528407 4.5403830788352275 2.004134632457386 Q 4.520075017755682 2.1020128284801136 4.510420365767046 2.15561279296875 Q 4.507091175426137 2.172591663707386 4.4927756569602275 2.172591663707386 Q 4.477794300426137 2.172591663707386 4.4744651100852275 2.157943226207386 Q 4.473466352982954 2.1536152787642044 4.4764626242897725 2.144293545809659 Q 4.479458895596591 2.1349718128551136 4.485284978693182 2.112166859019886 Q 4.4911110617897725 2.089361905184659 4.497935901988637 2.0598985706676136 Q 4.5047607421875 2.030435236150568 4.512417879971591 1.9954787375710226 Q 4.520075017755682 1.9605222389914772 4.528065074573863 1.923568226207386 Q 4.536055131392046 1.8866142134232953 4.5440451882102275 1.849160822088068 Q 4.552035245028409 1.8117074307528407 4.559359463778409 1.7767509321732953 Q 4.566683682528409 1.7417944335937499 4.573175603693182 1.711165882457386 Q 4.579667524857954 1.6805373313210226 4.583662553267046 1.6625597034801136 Q 4.5899880149147725 1.630932395241477 4.610296075994318 1.630932395241477 M 4.547374378551137 1.9691781338778407 Q 4.572676225142046 1.9705098100142044 4.6156227805397725 1.9705098100142044 Q 4.6512451171875 1.9705098100142044 4.672551935369318 1.9695110529119315 Q 4.665560635653409 1.9392154208096588 4.6585693359375 1.9072551935369315 Q 4.6475830078125 1.857650257457386 4.6375954367897725 1.811041592684659 Q 4.6209494850852275 1.7348031338778407 4.608964399857954 1.6772081409801134 Q 4.601307262073863 1.715493829900568 4.586991743607954 1.781411798650568 Q 4.568348277698863 1.869302423650568 4.5586936257102275 1.9152452503551134 Q 4.553034002130682 1.9428775301846588 4.547374378551137 1.9691781338778407 M 4.856489701704545 2.016119717684659 Q 4.8591530539772725 2.0916923384232953 4.860817649147727 2.147289817116477 Q 4.8611505681818175 2.1586090642755678 4.855158025568182 2.1641022283380678 Q 4.849165482954545 2.1695953924005678 4.842340642755682 2.1695953924005678 Q 4.8355158025568175 2.1695953924005678 4.830355557528408 2.164435147372159 Q 4.8251953125 2.15927490234375 4.8251953125 2.1489544122869315 L 4.8251953125 1.898599298650568 Q 4.8251953125 1.7687608753551134 4.8188698508522725 1.6655559747869315 Q 4.81787109375 1.6509075372869315 4.826859907670454 1.645247913707386 Q 4.830522017045454 1.6429174804687499 4.834517045454545 1.6424181019176136 Q 4.838512073863636 1.641918723366477 4.852161754261363 1.637923694957386 Q 4.886452414772727 1.6282690429687499 4.920243696732954 1.6282690429687499 Q 4.954034978693182 1.6282690429687499 4.976174094460227 1.6357597212357953 Q 4.9983132102272725 1.6432503995028407 5.013960404829545 1.6585646750710226 Q 5.047252308238636 1.6911907404119315 5.047252308238636 1.7547782759232953 Q 5.047252308238636 1.836676358309659 4.982666015625 1.9129148171164772 Q 4.972345525568182 1.9252328213778407 4.960693359375 1.9372179066051134 Q 4.993319424715908 2.037093616832386 5.037264737215908 2.14096435546875 Q 5.045254794034091 2.158941983309659 5.029274680397727 2.1672649591619315 Q 5.025279651988636 2.169262473366477 5.019952947443182 2.169262473366477 Q 5.007967862215908 2.169262473366477 5.002974076704545 2.15561279296875 Q 4.992320667613636 2.1246513227982953 4.9836647727272725 2.0961867453835223 Q 4.975008877840908 2.06772216796875 4.966685901988636 2.040755726207386 Q 4.952037464488636 1.9921495472301134 4.939053622159091 1.9575259676846588 Q 4.902432528409091 1.9898191139914772 4.856489701704545 2.016119717684659 M 4.8554909446022725 1.9844924094460226 Q 4.908092151988636 1.9538638583096588 4.954034978693182 1.9012626509232953 Q 5.015625 1.8296850585937499 5.015625 1.7577745472301134 Q 5.015625 1.6832006835937499 4.963356711647727 1.6615609463778407 Q 4.934725674715908 1.649575861150568 4.8904474431818175 1.6582317560369315 Q 4.869473544034091 1.6622267844460226 4.856156782670454 1.6688851651278407 Q 4.8518288352272725 1.7690937943892044 4.8518288352272725 1.8370092773437499 Q 4.8518288352272725 1.9092527077414772 4.8519952947443175 1.9147458718039772 Q 4.852161754261363 1.9202390358664772 4.852328213778408 1.9247334428267044 Q 4.852494673295454 1.9292278497869315 4.852827592329545 1.9340551757812499 Q 4.853160511363636 1.938882501775568 4.8536598899147725 1.9478713156960226 Q 4.854159268465908 1.9568601296164772 4.854825106534091 1.971175648082386 Q 4.855158025568182 1.9771681906960226 4.8554909446022725 1.9844924094460226 M 5.3793390447443175 1.648910023082386 Q 5.3773415305397725 1.814703702059659 5.3773415305397725 1.8834514825994315 Q 5.3773415305397725 1.9521992631392044 5.3775079900568175 1.9843259499289772 Q 5.377674449573863 2.01645263671875 5.378007368607954 2.045416592684659 Q 5.378673206676136 2.106673694957386 5.379505504261363 2.1291457297585223 Q 5.380337801846591 2.151617764559659 5.378340287642045 2.1559457120028407 Q 5.3763427734375 2.1602736594460223 5.373013583096591 2.1632699307528407 Q 5.359363902698863 2.1755879350142044 5.344049627130682 2.165600363991477 Q 5.338057084517045 2.161605335582386 5.3353937322443175 2.1536152787642044 Q 5.3060968572443175 2.06772216796875 5.264814897017045 1.9670141601562499 Q 5.2235329367897725 1.8663061523437499 5.2072199041193175 1.824691273082386 Q 5.177590110085227 1.7491186523437499 5.155617453835227 1.686196954900568 L 5.159945401278409 2.150619007457386 Q 5.159945401278409 2.1609394975142044 5.154618696732954 2.1659332830255678 Q 5.1492919921875 2.1709270685369315 5.142467151988636 2.1709270685369315 Q 5.1356423117897725 2.1709270685369315 5.129816228693182 2.1654339044744315 Q 5.123990145596591 2.1599407404119315 5.124323064630682 2.1489544122869315 Q 5.127652254971591 2.0574016779119315 5.127652254971591 1.9402141779119315 L 5.127652254971591 1.7427931906960226 Q 5.127652254971591 1.6911907404119315 5.126986416903409 1.6539038085937499 Q 5.126986416903409 1.641585804332386 5.134477095170454 1.6350938831676136 Q 5.1419677734375 1.6286019620028407 5.1502907492897725 1.6286019620028407 Q 5.168934215198863 1.6286019620028407 5.1749267578125 1.646246670809659 Q 5.180919300426136 1.663891379616477 5.191905628551136 1.6936876331676134 Q 5.202891956676136 1.7234838867187499 5.216541637073863 1.7599385209517044 Q 5.230191317471591 1.796393155184659 5.245838512073863 1.8371757368607953 Q 5.261485706676136 1.8779583185369315 5.277132901278409 1.9184079811789772 Q 5.292780095880682 1.9588576438210226 5.307428533380682 1.996810413707386 Q 5.322076970880682 2.03476318359375 5.334062056107954 2.0657246537642044 Q 5.346047141335227 2.096686123934659 5.3543701171875 2.118658780184659 Q 5.354703036221591 2.1196575372869315 5.355035955255682 2.1203233753551136 Q 5.352372602982954 2.0550712446732953 5.3507080078125 1.9781669477982953 Q 5.349043412642045 1.8846166992187499 5.347878196022727 1.8380080344460226 Q 5.346712979403408 1.7913993696732953 5.345547762784091 1.7436254882812499 Q 5.3443825461647725 1.6958516068892044 5.3427179509943175 1.648910023082386 Q 5.3427179509943175 1.638256613991477 5.348544034090908 1.633096368963068 Q 5.3543701171875 1.627936123934659 5.361361416903408 1.627936123934659 Q 5.3683527166193175 1.627936123934659 5.3738458806818175 1.633096368963068 Q 5.3793390447443175 1.638256613991477 5.3793390447443175 1.648910023082386 M 5.528153852982954 1.7336379172585226 Q 5.527987393465908 1.7517820046164772 5.527987393465908 1.879622913707386 Q 5.527987393465908 2.0074638227982953 5.531982421875 2.1486214932528407 Q 5.532315340909091 2.15927490234375 5.5258234197443175 2.1649345259232953 Q 5.519331498579545 2.1705941495028407 5.512173739346591 2.1705941495028407 Q 5.505015980113636 2.1705941495028407 5.499522816051136 2.165600363991477 Q 5.494029651988636 2.1606065784801136 5.4946954900568175 2.143294788707386 Q 5.495361328125 2.125982998934659 5.496027166193182 2.0953544477982953 Q 5.496693004261363 2.0647258966619315 5.497358842329545 2.030102317116477 Q 5.498690518465908 1.9615209960937499 5.498690518465908 1.9020949485085226 Q 5.498690518465908 1.8426689009232953 5.498524058948863 1.8095434570312499 Q 5.4983575994318175 1.7764180131392044 5.497691761363636 1.748452814275568 Q 5.496693004261363 1.686529873934659 5.494029651988636 1.649575861150568 Q 5.493030894886363 1.638922452059659 5.497858220880682 1.6337622070312499 Q 5.502685546875 1.6286019620028407 5.510342684659091 1.6286019620028407 Q 5.517999822443182 1.6286019620028407 5.524658203125 1.6337622070312499 Q 5.5313165838068175 1.638922452059659 5.530817205255682 1.6512404563210226 Q 5.530317826704545 1.663558460582386 5.529818448153408 1.675543545809659 Q 5.5293190696022725 1.6875286310369315 5.528819691051136 1.7015112304687499 Q 5.5283203125 1.715493829900568 5.528153852982954 1.7336379172585226 M 5.901023171164772 1.648910023082386 Q 5.899025656960227 1.814703702059659 5.899025656960227 1.8834514825994315 Q 5.899025656960227 1.9521992631392044 5.899192116477272 1.9843259499289772 Q 5.8993585759943175 2.01645263671875 5.899691495028408 2.045416592684659 Q 5.90035733309659 2.106673694957386 5.9011896306818175 2.1291457297585223 Q 5.902021928267045 2.151617764559659 5.900024414062499 2.1559457120028407 Q 5.898026899857954 2.1602736594460223 5.894697709517045 2.1632699307528407 Q 5.8810480291193175 2.1755879350142044 5.865733753551136 2.165600363991477 Q 5.859741210937499 2.161605335582386 5.857077858664772 2.1536152787642044 Q 5.827780983664772 2.06772216796875 5.786499023437499 1.9670141601562499 Q 5.745217063210227 1.8663061523437499 5.728904030539772 1.824691273082386 Q 5.699274236505681 1.7491186523437499 5.677301580255681 1.686196954900568 L 5.681629527698863 2.150619007457386 Q 5.681629527698863 2.1609394975142044 5.676302823153408 2.1659332830255678 Q 5.670976118607954 2.1709270685369315 5.66415127840909 2.1709270685369315 Q 5.657326438210227 2.1709270685369315 5.651500355113636 2.1654339044744315 Q 5.645674272017045 2.1599407404119315 5.646007191051136 2.1489544122869315 Q 5.649336381392045 2.0574016779119315 5.649336381392045 1.9402141779119315 L 5.649336381392045 1.7427931906960226 Q 5.649336381392045 1.6911907404119315 5.648670543323863 1.6539038085937499 Q 5.648670543323863 1.641585804332386 5.656161221590908 1.6350938831676136 Q 5.663651899857954 1.6286019620028407 5.671974875710227 1.6286019620028407 Q 5.6906183416193175 1.6286019620028407 5.696610884232954 1.646246670809659 Q 5.70260342684659 1.663891379616477 5.71358975497159 1.6936876331676134 Q 5.72457608309659 1.7234838867187499 5.7382257634943175 1.7599385209517044 Q 5.751875443892045 1.796393155184659 5.7675226384943175 1.8371757368607953 Q 5.78316983309659 1.8779583185369315 5.798817027698863 1.9184079811789772 Q 5.814464222301136 1.9588576438210226 5.829112659801136 1.996810413707386 Q 5.843761097301136 2.03476318359375 5.855746182528408 2.0657246537642044 Q 5.867731267755681 2.096686123934659 5.876054243607954 2.118658780184659 Q 5.876387162642045 2.1196575372869315 5.876720081676136 2.1203233753551136 Q 5.874056729403408 2.0550712446732953 5.872392134232954 1.9781669477982953 Q 5.870727539062499 1.8846166992187499 5.869562322443181 1.8380080344460226 Q 5.868397105823863 1.7913993696732953 5.867231889204545 1.7436254882812499 Q 5.866066672585227 1.6958516068892044 5.864402077414772 1.648910023082386 Q 5.864402077414772 1.638256613991477 5.870228160511363 1.633096368963068 Q 5.876054243607954 1.627936123934659 5.883045543323863 1.627936123934659 Q 5.890036843039772 1.627936123934659 5.895530007102272 1.633096368963068 Q 5.901023171164772 1.638256613991477 5.901023171164772 1.648910023082386 M 6.224786931818181 1.7830763938210226 Q 6.225452769886362 1.8050490500710226 6.20980557528409 1.8050490500710226 Q 6.203147194602272 1.8050490500710226 6.1978204900568175 1.8002217240767044 Q 6.192493785511362 1.795394398082386 6.192493785511362 1.7857397460937499 Q 6.192493785511362 1.6812031693892044 6.147882634943181 1.663891379616477 Q 6.133900035511362 1.6585646750710226 6.111428000710227 1.660229270241477 Q 6.08895596590909 1.6618938654119315 6.069813121448862 1.680703790838068 Q 6.050670276988636 1.6995137162642044 6.038685191761362 1.7311410245028407 Q 6.016046697443181 1.7904006125710226 6.016046697443181 1.8956030273437499 Q 6.016046697443181 2.118658780184659 6.089288884943181 2.1412972745028407 Q 6.101606889204545 2.1449593838778407 6.114923650568181 2.1449593838778407 Q 6.1795099431818175 2.1449593838778407 6.193825461647727 2.023443936434659 Q 6.198153409090908 1.9841594904119315 6.1978204900568175 1.9671806196732953 Q 6.168190696022727 1.9655160245028407 6.148548473011362 1.9678464577414772 Q 6.126908735795454 1.9705098100142044 6.118918678977272 1.9705098100142044 Q 6.11092862215909 1.9705098100142044 6.106101296164772 1.9648501864346588 Q 6.101273970170454 1.9591905628551134 6.101273970170454 1.9523657226562499 Q 6.101273970170454 1.945540882457386 6.1062677556818175 1.9402141779119315 Q 6.111261541193181 1.9348874733664772 6.121748490767045 1.936385609019886 Q 6.132235440340908 1.9378837446732953 6.142555930397727 1.9378837446732953 L 6.161865234374999 1.9378837446732953 Q 6.179177024147727 1.9378837446732953 6.188165838068181 1.9365520685369315 Q 6.203813032670453 1.9342216352982953 6.211470170454545 1.9342216352982953 Q 6.228781960227272 1.9342216352982953 6.228781960227272 1.9538638583096588 Q 6.228781960227272 2.0587333540482953 6.1978204900568175 2.1183258611505678 Q 6.166193181818181 2.1782512872869315 6.111927379261362 2.1782512872869315 Q 6.046342329545454 2.1782512872869315 6.015047940340908 2.1093370472301136 Q 5.983420632102272 2.0390911310369315 5.983420632102272 1.8892775656960226 Q 5.983420632102272 1.6355932617187499 6.11825284090909 1.627936123934659 Q 6.224786931818181 1.6222765003551136 6.224786931818181 1.7830763938210226" fill="#3682ae" fill-rule="nonzero"></path></g><g clip-path="url(#SvgjsClipPath1003)"><g clip-path="url(#b8b17d492-0b29-4be9-ae0d-7bae83d735c7340edbfc-6b3a-47bd-81b1-b82752e314dd)"><path d=" M 7.859187577328295 1.690960805003146 L 7.1856117479221675 1.4702044650827135 C 7.2142890998036115 1.4162235674235246 7.256917595843596 1.3763305898459992 7.304287657218509 1.368807914074237 C 7.337113878768016 1.246256686956079 7.5010170266436775 1.1567140492849248 7.646318648974619 1.1872606721157157 C 7.717533312947299 1.1166842957842762 7.929490401813489 1.102915519523233 8.053728531983497 1.1811513475495574 C 8.169486554919882 1.1457263834607148 8.291171534524928 1.16068055105549 8.346429007466597 1.2769400857099928 C 8.405379430332587 1.2709675370669575 8.50495230236609 1.313596033106942 8.489542215027573 1.4111628582679758 C 8.5042228307761 1.4288525443252098 8.51562082436968 1.4486850531780369 8.52396415568018 1.4698853212620933 Z" fill="#3682ae" transform="matrix(1,0,0,1,0,0)" fill-rule="nonzero"></path></g><g clip-path="url(#b8b17d492-0b29-4be9-ae0d-7bae83d735c7340edbfc-6b3a-47bd-81b1-b82752e314dd)"><path d=" M 7.85353417250588 1.7509142513053702 L 7.1385152383935 1.5146110481232964 C 7.110397393627715 1.5907293730967826 7.0946660656453515 1.6708637111361042 7.091920240582951 1.7519628667159788 C 7.421504623334872 1.7679656497213638 7.705360255789357 1.823724634381151 7.85353417250588 2.0979147682682804 C 8.001708089222403 1.823724634381151 8.285609313651262 1.7679656497213638 8.615148104428808 1.7519628667159792 C 8.612425054012887 1.6708611087029666 8.596693019635289 1.5907231723333242 8.568553106618259 1.5146110481232955 Z M 9.04804390111293 1.8472045011839229 C 9.03760333898121 1.8568699997512779 9.012117425305968 1.8562773040844116 9.00208719094362 1.8470221332864258 L 9.002041598969246 1.848344300543281 C 8.980476595090193 1.938616409804424 8.974458454472785 2.179706770295801 8.98540052832262 2.2021836136623385 C 8.991915072182765 2.2153686674779243 9.005389780013466 2.2236730537756895 9.020096020821473 2.223566249643892 C 9.019776877000854 2.123993377610388 9.026250937362006 2.0699668879768254 9.027253960798241 2.0469429409177966 C 9.031539606389426 2.075574700824866 9.03705623528872 2.124084561559137 9.04129628890553 2.2230647379257746 C 9.046688019367345 2.2233084943816284 9.052061262285758 2.222277581496119 9.056979928090295 2.2200556676170695 C 9.048454228882298 2.06103086099946 9.045536342522341 1.9443154066012136 9.046402590035454 1.9289509112370693 C 9.051691259062874 1.9401665369331509 9.06792200194013 2.0702404398230705 9.076675661019998 2.2121682560503126 C 9.078089012225602 2.2102533931265915 9.083788009022392 2.2016365099698465 9.084289520740509 2.199311319276756 C 9.089350229896057 2.1755123086533645 9.07193409568507 1.9344219481619873 9.04804390111293 1.8472045011839229 M 7.855403443455227 0.9251980034121541 L 6.664404296875 1.319796541621849 L 7.855403443455227 1.7143494878571697 L 9.002771070559234 1.3342036055241324 L 9.002862254507983 1.742798879866742 C 8.9866771036051 1.7589840307696238 8.98371362527077 1.7964606337053106 9.002862254507983 1.815654854916897 C 9.010476114228494 1.8232231226630333 9.036098803826858 1.8235422664836536 9.046129038189207 1.815654854916897 C 9.056569600320927 1.805214292785179 9.064730563733928 1.7614004054114625 9.046129038189207 1.742798879866742 L 9.046129038189207 1.3198421335962234 L 9.046356998061079 1.3197965416218491 L 9.046129038189207 1.3197053576731004 L 9.046129038189207 1.3196597656987261 L 9.046356998061079 1.3197053576731004 L 8.47408653571468 0.34225901906216494 L 7.281172526210732 -0.05297780678877065 L 7.8534429885571315 0.9244685318221653 L 9.045764302394213 1.3195229897756033 L 9.045673118445464 1.3195229897756033 Z M 7.179593607304758 1.4402505379187889 L 6.815997611669597 1.3197965416218491 L 7.8332001519349355 0.9827806670469139 L 7.8332001519349355 1.1085233323712742 C 7.831513248883086 1.1085233323712742 7.829826345831236 1.1085233323712742 7.828139442779387 1.108614516320023 C 7.764721006424715 1.1106205631924926 7.690360496220207 1.1234774999660495 7.6402093244084615 1.1660604040316596 C 7.503342217336768 1.1439027044857424 7.335107831895546 1.2140687530478131 7.2887863859312425 1.3518476996069924 C 7.242009020223195 1.3634736530724427 7.2056722166468665 1.3982603295200449 7.179593607304758 1.4402505379187889 M 7.767365340938425 1.6349738604714874 L 7.607200734961457 1.581904802299785 C 7.6110760527832735 1.5785309961960856 7.614814594681968 1.5751115981180122 7.618370768683164 1.5715554241168155 C 7.643719906435283 1.5462062863646966 7.662412615928752 1.5125138173020778 7.662458207903127 1.4759946458282516 C 7.662458207903127 1.4330925979420215 7.633142568380443 1.3994457208537772 7.600179570907812 1.3757378941791334 C 7.579344038618751 1.360783726584358 7.559557121740298 1.39525125921134 7.580119102183113 1.4100230589086182 C 7.600453122754058 1.424612490708399 7.617322153272554 1.443305200201868 7.622200494530606 1.4683807861077411 C 7.625893444454926 1.487164679549959 7.617413337221303 1.50704278037716 7.607155142987082 1.5229999714081703 C 7.595497131863463 1.54059955592948 7.580352313512067 1.5556202364255363 7.562657375997751 1.5671330026025072 L 7.2183923774973 1.4531074746923458 C 7.240823628889463 1.4203268451172133 7.271051107899633 1.394476195646977 7.30957632624593 1.3879109513370755 C 7.3161871625302055 1.3867711519777177 7.321703791429497 1.3802059076678164 7.323436286455721 1.3740509911272836 C 7.340670052769212 1.312228273875713 7.389818201144724 1.266317155680778 7.4449388981632705 1.2367735562862219 C 7.475499222965326 1.2207935708906308 7.508449449357103 1.2098768837355984 7.542505723324304 1.2044488464548329 C 7.567164540299415 1.2005737118955 7.592223348374604 1.1999299993944863 7.617048601426309 1.2025339835311113 C 7.626668508019289 1.2034458230185978 7.636698742381639 1.207093180968543 7.646318648974619 1.207093180968543 C 7.658218154286315 1.207093180968543 7.668385164571787 1.1935523645793713 7.677959479190394 1.1872606721157162 C 7.688719185142732 1.1801939160876973 7.700481914531305 1.174540511265282 7.712518195766124 1.169935721853476 C 7.740754298499587 1.159490412443497 7.770251208219255 1.152836743618998 7.800237154462305 1.150148804975024 C 7.867348540741297 1.1433556007932506 7.9366483417902565 1.151197420385633 7.9996108584011845 1.1757259025990143 C 8.005355447172349 1.1779599093433555 8.01096326002039 1.1805130599083173 8.016525480894055 1.183202986396402 C 8.001753681196778 1.2008014885048874 7.999382898529313 1.2246004991282797 8.005537815069847 1.2473508943410627 C 7.963306687726846 1.2476044859172093 7.921684069888004 1.2574411420431681 7.883807243490425 1.2761194301712555 C 7.844689329477263 1.2956327952034625 7.8222580780851 1.333109398139149 7.827455563163772 1.3768776935384914 C 7.829917529779985 1.3977588178019276 7.836118038294892 1.4180016544241232 7.844370185656643 1.4376062034050787 C 7.829250842716985 1.4339820433982675 7.813588264290095 1.433208964502567 7.798185515615462 1.435326604686363 C 7.766863829220307 1.439566658303174 7.737137861928254 1.457073976462911 7.722913165923468 1.4860704721649753 C 7.711697540227386 1.5089576433008813 7.745937112982497 1.5291092959743287 7.757198330652953 1.506130940889674 C 7.7775779431982714 1.4644598763115502 7.837029877782378 1.466329147260897 7.869445771562516 1.4921797967311334 C 7.872363657922472 1.4945049874242236 7.880980541079218 1.5076810680184007 7.888229665004734 1.5199453091250912 C 7.891329919262187 1.5251883861781375 7.894703725365886 1.5303402792824352 7.8975304277770935 1.5357657242329785 C 7.897638134826166 1.5360384513732646 7.897775751658029 1.5362983942778943 7.897940755546463 1.536540787797342 L 7.898031939495211 1.5368143396435878 C 7.8985334512133285 1.5381820988748172 7.898943778982698 1.5396410420547952 7.8993541067520665 1.541054393260399 C 7.899533790384751 1.5416208800516864 7.899670947194293 1.5421999865808649 7.899764434521435 1.5427868882866231 C 7.899855618470184 1.5433795839534892 7.9000835783420555 1.5448385271334673 7.9000835783420555 1.5454768147747076 C 7.9001747622908045 1.5468445740059371 7.9000835783420555 1.5481667412627922 7.900037986367681 1.5495345004940215 L 7.900037986367681 1.549580092468396 C 7.899917525776395 1.5500326120089698 7.899811093594328 1.550488749932114 7.8997188425470615 1.5509478516996253 C 7.899399698726441 1.5522700189564804 7.8989893709570715 1.5535465942389612 7.898579043187703 1.5548687614958163 L 7.898396675290206 1.555415865188308 C 7.896755618550247 1.5586963074783224 7.894849629126039 1.5618373780494172 7.892697678493416 1.564807811909417 L 7.8903724878003265 1.5674977383975017 C 7.887672017373074 1.5704795785576222 7.884794520180658 1.5732961763385578 7.881755604643581 1.57593225365675 C 7.8719533301531035 1.5847315047109924 7.85554021937835 1.594624963150219 7.840722827706697 1.6024667827426011 C 7.822460018970438 1.611964398851063 7.80372814326655 1.6205314549203473 7.784599107251914 1.6281350643153414 C 7.778870216843459 1.6304540259575042 7.773125493027827 1.6327336782652946 7.7673653409384285 1.634973860471486 M 8.147009711553345 1.5675433303718758 C 8.150155557785173 1.5519508751358602 8.154714755222603 1.536723155694839 8.161052039660634 1.522133723895058 C 8.172495625228587 1.4959639306042014 8.190869190901434 1.4684719700564897 8.221187853860355 1.4641407324909297 C 8.231901967838319 1.4626361973365773 8.237646556609482 1.4491409729217803 8.235047814070146 1.4397490262006714 C 8.231901967838319 1.4283510326070925 8.221324629783478 1.4243389388621528 8.210610515805513 1.4258890659908796 C 8.17327068879295 1.4312233269926744 8.146599383783975 1.4630009331315719 8.130323048932345 1.4946873553217208 C 8.123626911126914 1.507810296611608 8.118177556906 1.521532900097888 8.114046714080715 1.5356745402842296 C 8.095171636689749 1.495872746655453 8.06804441193703 1.4600374547972415 8.03822726069623 1.4352810127119886 C 8.018713895664023 1.4190502698347325 7.990446871551947 1.4469981501261873 8.010188196456026 1.4633200769521921 C 8.048082908559339 1.4960034485444402 8.076662254314925 1.5381253461412832 8.093028813894156 1.5854153843266074 L 7.855403443455227 1.664152724071049 L 7.8247656366756875 1.653985713785577 C 7.856452058865836 1.640262529498908 7.888594400799728 1.6243053384678978 7.913715578679976 1.6004151438957568 C 7.9375601812777425 1.5777559326317223 7.946222656408862 1.5476652295446747 7.932499472122194 1.5172097906626323 C 7.921283846426112 1.4923621646286307 7.90446040788199 1.4694749934927247 7.892059390852176 1.4450832872024664 C 7.881710012669206 1.4246580826827733 7.8726828017430925 1.4035034065730911 7.867986828382538 1.381026563206554 C 7.864749798201961 1.3654796999449126 7.865661637689447 1.349750468785774 7.872454841871221 1.3373950437303344 C 7.8805702133098485 1.3224408761355595 7.898168715418334 1.311954722029467 7.915676033578071 1.3050703338989453 C 7.945678851503514 1.2933234431832228 7.977480355309671 1.2868305076340512 8.009686684737908 1.2858761126873588 C 8.040962779158688 1.2853746009692413 8.072284465553842 1.2961343069215798 8.102010432845896 1.3046144141552023 C 8.152343972555139 1.3190214780574858 8.216446288525425 1.3404041140390393 8.264409045567206 1.3082617721051475 C 8.285563721676887 1.2941282600491097 8.265731212824061 1.2597063193965023 8.24439416881688 1.2739766073756627 C 8.221324629783478 1.2894322866885555 8.192875237773904 1.2858305207129845 8.167024588303669 1.2805874436599383 C 8.134107182805414 1.2738398314525397 8.102283984692141 1.2626697977308325 8.069685723014507 1.2546912022153274 C 8.062965642560629 1.253063017598639 8.056182008852174 1.2517093328451583 8.049351702443563 1.2506335164960134 C 8.039686203876208 1.2330350143875282 8.035856478028766 1.2122906660472148 8.056919970189698 1.2014397761461275 C 8.05787740165156 1.2009382644280102 8.058743649164672 1.200436752709893 8.059518712729034 1.1998440570430267 C 8.070187234732625 1.198749849658043 8.081266084505582 1.1940082843231143 8.091433094791055 1.1917286856043985 C 8.122273158338308 1.1846902927727654 8.15402689893269 1.1825364537789607 8.18553492989964 1.1853458091919946 C 8.246764951484344 1.1908624380912867 8.296004283808605 1.22555793059014 8.324864003587546 1.2783078449412224 C 8.297508818962958 1.3544920341207025 8.323450652381943 1.427667152991478 8.344696512440374 1.5020276631959852 Z M 8.38258344314543 1.4894898702430488 C 8.363115670087597 1.425341962298388 8.33694587679674 1.3611484623793526 8.359924231881395 1.2963166748190769 C 8.401868848305764 1.2972741062809376 8.44882858191131 1.3189758860831113 8.46510491676294 1.3587776797118882 C 8.47039358579036 1.3717713924085682 8.471715753047215 1.3851754328746166 8.4710318734316 1.3990809850587826 C 8.470530361713482 1.4092479953442547 8.468433130892265 1.4164971192697708 8.475499886920282 1.4251595944008908 C 8.482441900136868 1.433743677186403 8.488605948635822 1.442928719751674 8.493919044567507 1.4526059629742285 Z M 8.53166919934944 1.4400681700212916 C 8.525392313761234 1.4278292946229383 8.518086498622228 1.416146091289999 8.509830643624142 1.4051447176505663 C 8.513158857753467 1.360054254994369 8.496836930927461 1.3193862138524803 8.459679471812397 1.2909368218429078 C 8.430477307822436 1.26880071379773 8.394880775511531 1.2567378889157432 8.358237328829546 1.2565604731646747 C 8.33144385337407 1.206834942603999 8.28586949352675 1.1698960702493633 8.231674007966447 1.153978530822466 C 8.174911999870424 1.1372006842527183 8.112770138798234 1.1437659285626196 8.056418458471581 1.1596775276192555 C 8.002118416991772 1.1280366974034808 7.938973532483346 1.1128545699368342 7.876102199821165 1.109207211986889 L 7.876102199821165 0.9822791553287964 L 8.894809275240856 1.3197965416218491 Z M 7.737821741543869 1.351072636042629 C 7.723916189359703 1.3148270164150488 7.761848712039133 1.2849186812254982 7.790845207741198 1.270101289553846 C 7.813641194928355 1.2584753360883956 7.793535134229281 1.224235763333285 7.770784739016499 1.235816124824361 C 7.742517714904423 1.2502687807010189 7.7131564834073645 1.2754355505556407 7.700709874403177 1.3056174375914373 C 7.682944618647145 1.290860612414584 7.661849557950768 1.2806573634724194 7.6392518929466 1.2758914702993838 C 7.592155383417933 1.2658156439626604 7.534663903731922 1.2719249685288185 7.492947247179424 1.2967725945628201 C 7.45793261085995 1.317608126851882 7.438008918058374 1.3547655859669485 7.436595566852771 1.3949777073650942 C 7.4351366236727925 1.4380165311744475 7.457066363346838 1.4789581241625822 7.485652531279533 1.5095959309421216 C 7.503159849439271 1.5283798243843396 7.5311533217051 1.5002495761953873 7.513737187494112 1.481556866701918 C 7.474482497557826 1.4394754743544256 7.4562001158337265 1.3672121949711364 7.513007715904123 1.3310577592923047 C 7.544010258478656 1.3112708424138524 7.589465456929848 1.3076690764382812 7.625027196941814 1.3134592571838195 C 7.658491706132561 1.318930294108737 7.683886435859055 1.3379421474228266 7.701530529941914 1.3663915394323989 C 7.7129741155098674 1.3847651051052476 7.746165072854368 1.3728200078191772 7.737821741543869 1.351072636042629" fill="#102036" transform="matrix(1,0,0,1,0,0)" fill-rule="nonzero"></path></g><g clip-path="url(#b8b17d492-0b29-4be9-ae0d-7bae83d735c7340edbfc-6b3a-47bd-81b1-b82752e314dd)"><path d=" M 8.250229941536794 0.6958247803349761 C 8.243163185508774 0.715657289187803 8.213300442293598 0.7231343729851907 8.18352888302717 0.7125114429559753 C 8.153757323760743 0.70188851292676 8.135383758087894 0.6772232547902557 8.142496106090288 0.6573907459374286 C 8.149562862118307 0.6375126451102274 8.179425605333483 0.6300811532872141 8.20919716459991 0.6407040833164295 C 8.238923131891964 0.6512814213712705 8.257296697564811 0.6759922714821492 8.250229941536794 0.6958247803349761" fill="#a5b2ba" transform="matrix(1,0,0,1,0,0)" fill-rule="nonzero"></path></g></g></g><defs><clipPath id="SvgjsClipPath1003"><path d=" M 6.664404296875 -0.05297210014105169 h 2.420768921294518 v 2.276538349784944 h -2.420768921294518 Z"></path></clipPath><clipPath id="b8b17d492-0b29-4be9-ae0d-7bae83d735c7340edbfc-6b3a-47bd-81b1-b82752e314dd"><path d=" M 6.618812322500686 -0.09856978116308523 L 9.130747742627936 -0.09856978116308523 L 9.130747742627936 2.2691582240182067 L 6.618812322500686 2.2691582240182067 Z"></path></clipPath></defs></svg>